<?xml version="1.0" encoding="utf-8"?>
<!-- Generator: Adobe Illustrator 22.1.0, SVG Export Plug-In . SVG Version: 6.00 Build 0)  -->
<svg version="1.1" id="garden" xmlns="http://www.w3.org/2000/svg" xmlns:xlink="http://www.w3.org/1999/xlink" x="0px" y="0px"
	 viewBox="0 0 15 15" style="enable-background:new 0 0 15 15;" xml:space="preserve">
<style type="text/css">
	.st0{fill:#009900;}
</style>
<path class="st0" d="M13,8c0,3.3-2.2,6-5.5,6S2,11.3,2,8c2.3,0,4.3,1.5,5,3.6V7H4.5C3.7,7,3,6.3,3,5.5v-3C3,2.2,3.2,2,3.5,2
	c0.2,0,0.3,0.1,0.4,0.2l1.5,2l1.7-3C7.2,1,7.5,0.9,7.8,1.1c0.1,0,0.1,0.1,0.1,0.1l1.6,3l1.5-2c0.2-0.2,0.5-0.3,0.7-0.1
	C11.9,2.2,12,2.3,12,2.5v3C12,6.3,11.3,7,10.5,7H8v4.6C8.7,9.5,10.7,8,13,8z"/>
</svg>
