<svg id="Laag_1" data-name="Laag 1" xmlns="http://www.w3.org/2000/svg" viewBox="0 0 710.54 558.09"><defs><style>.cls-1{fill:#f1f1f1;}.cls-2,.cls-3,.cls-4,.cls-5,.cls-6,.cls-8{fill:none;stroke:#343434;}.cls-2{stroke-width:3.16px;}.cls-3,.cls-4,.cls-5,.cls-6,.cls-8{stroke-width:5px;}.cls-3{stroke-dasharray:19.99 19.99;}.cls-4{stroke-dasharray:18.76 18.76;}.cls-6{stroke-dasharray:20.84 20.84;}.cls-7{fill:#d85930;}.cls-8{stroke-dasharray:20.91 20.91;}</style></defs><title>Route</title><path class="cls-1" d="M426.57,574.55c149.17,0,270.1-120.93,270.1-270.11S575.74,34.34,426.57,34.34s-270.1,120.93-270.1,270.1S277.4,574.55,426.57,574.55" transform="translate(-66.67 -16.45)"/><path class="cls-2" d="M103.78,447.5a14.24,14.24,0,1,0-14.24-14.23A14.23,14.23,0,0,0,103.78,447.5Z" transform="translate(-66.67 -16.45)"/><path class="cls-2" d="M287.49,233.08a14.24,14.24,0,1,0-14.24-14.24A14.23,14.23,0,0,0,287.49,233.08Z" transform="translate(-66.67 -16.45)"/><path class="cls-2" d="M592.48,145.72a14.24,14.24,0,1,0-14.24-14.24A14.23,14.23,0,0,0,592.48,145.72Z" transform="translate(-66.67 -16.45)"/><path class="cls-2" d="M545,454.59a14.24,14.24,0,1,0-14.24-14.23A14.23,14.23,0,0,0,545,454.59Z" transform="translate(-66.67 -16.45)"/><path class="cls-2" d="M739.79,435.19a14.24,14.24,0,1,0-7.21-18.8A14.23,14.23,0,0,0,739.79,435.19Z" transform="translate(-66.67 -16.45)"/><path class="cls-3" d="M141,388.28c34.92-31.89,106.82-80,162.33-1.45" transform="translate(-66.67 -16.45)"/><path class="cls-4" d="M329.06,427.45c56.27,76.32,143.44,85.1,188.39,51.31" transform="translate(-66.67 -16.45)"/><path class="cls-5" d="M524.6,472.69a73.73,73.73,0,0,0,6.32-6.92m-222.1-70.61q2.56,4.11,5.07,8.61,2.3,4.16,4.72,8.1m-198.52-2.1s2.36-2.89,6.65-7.46" transform="translate(-66.67 -16.45)"/><path class="cls-6" d="M556.65,406.65s69.44-153.35,173.88-6" transform="translate(-66.67 -16.45)"/><path class="cls-7" d="M98.58,342.63a17,17,0,1,1,17-17,17,17,0,0,1-17,17m0-50.89a31.82,31.82,0,0,0-31.89,31.74v3.31a5.89,5.89,0,0,0,0,.84,31.63,31.63,0,0,0,4.58,12.89l24.07,34.63a3.52,3.52,0,0,0,4.9.87,3.59,3.59,0,0,0,.87-.87l24.21-34.85a32.23,32.23,0,0,0,4.51-12.74,3.19,3.19,0,0,0,0-1.68v-2.19a31.82,31.82,0,0,0-31.25-31.95" transform="translate(-66.67 -16.45)"/><path class="cls-7" d="M285.64,147a17,17,0,1,1,17-17,17,17,0,0,1-17,17m0-50.88a31.82,31.82,0,0,0-31.89,31.74v3.31a3.93,3.93,0,0,0,0,.84,31.58,31.58,0,0,0,4.58,12.88l24.07,34.63a3.51,3.51,0,0,0,4.9.87,3.43,3.43,0,0,0,.87-.87l24.21-34.84a32.23,32.23,0,0,0,4.51-12.74,3.45,3.45,0,0,0,0-1.69v-2.18a31.81,31.81,0,0,0-31.25-31.95" transform="translate(-66.67 -16.45)"/><path class="cls-7" d="M592.75,67.34a17,17,0,1,1,17-17,17,17,0,0,1-17,17m0-50.89A31.81,31.81,0,0,0,560.87,48.2v3.31a3.93,3.93,0,0,0,0,.84,31.72,31.72,0,0,0,4.57,12.88l24.07,34.63a3.51,3.51,0,0,0,4.9.87,3.27,3.27,0,0,0,.87-.87L619.5,65A32.21,32.21,0,0,0,624,52.28a3.23,3.23,0,0,0,0-1.69V48.41a31.82,31.82,0,0,0-31.25-32" transform="translate(-66.67 -16.45)"/><path class="cls-7" d="M536.09,351.13a17,17,0,1,1,17-17,17,17,0,0,1-17,17m0-50.89A31.82,31.82,0,0,0,504.2,332v3.3a6,6,0,0,0,0,.85A31.64,31.64,0,0,0,508.78,349l24.07,34.63a3.52,3.52,0,0,0,4.9.87,3.43,3.43,0,0,0,.87-.87l24.21-34.84a32.23,32.23,0,0,0,4.51-12.74,3.23,3.23,0,0,0,0-1.69V332.2a31.82,31.82,0,0,0-31.25-32" transform="translate(-66.67 -16.45)"/><path class="cls-7" d="M745.86,312.66a17,17,0,1,1,17-17,17,17,0,0,1-17,17m0-50.89A31.82,31.82,0,0,0,714,293.51v3.31a4,4,0,0,0,0,.85,31.64,31.64,0,0,0,4.58,12.88l24.07,34.63a3.52,3.52,0,0,0,4.9.87,3.59,3.59,0,0,0,.87-.87l24.21-34.84a32.34,32.34,0,0,0,4.51-12.74,3.45,3.45,0,0,0,0-1.69v-2.19a31.82,31.82,0,0,0-31.25-32" transform="translate(-66.67 -16.45)"/><path class="cls-8" d="M318.23,188s92.85-144.72,236.14-72.36" transform="translate(-66.67 -16.45)"/></svg>
